<svg width="86" height="98" viewBox="0 0 86 98" fill="none" xmlns="http://www.w3.org/2000/svg">
<path d="M85.6793 27.1934L0 27.1934L0 70.713L42.8396 97.9127L85.6793 70.713L85.6793 27.1934Z" fill="#3D61EE"/>
<path d="M0.226665 70.5884L0.226665 27.42L85.4526 27.42L85.4526 70.5884L42.8396 97.6442L0.226665 70.5884Z" stroke="#252525" stroke-opacity="0.27" stroke-width="0.453329"/>
<path d="M85.6871 27.1998L42.8474 0L0.0078125 27.1998L42.8474 54.3995L85.6871 27.1998Z" fill="#5E7DF7"/>
<path d="M0.430687 27.1998L42.8474 0.268492L85.2642 27.1998L42.8474 54.131L0.430687 27.1998Z" stroke="#252525" stroke-opacity="0.27" stroke-width="0.453329"/>
<path d="M18.1328 26.1397C31.0814 25.0926 41.3745 16.992 42.7054 6.80078H42.9969C44.3114 16.8665 54.3688 24.8928 67.0924 26.0978V26.4108C54.5268 27.6009 44.5616 35.4438 43.0499 45.3338H42.6524C41.1216 35.319 30.9225 27.4032 18.1328 26.3689V26.1397Z" fill="#0EFF1E"/>
<path d="M19.2938 26.2543C31.5483 24.8568 41.2652 17.1424 42.8512 7.36983C44.4372 17.1425 54.1546 24.857 66.4084 26.2543C54.1675 27.6501 44.4586 35.3493 42.8563 45.1071H42.846C41.2437 35.3494 31.5354 27.6504 19.2938 26.2543Z" stroke="#252525" stroke-opacity="0.27" stroke-width="0.453329"/>
<path d="M42.8516 97.9245L42.8516 54.4048L85.6912 27.2051V70.7247L42.8516 97.9245Z" fill="#2B51E8"/>
</svg>
