<svg width="510" height="233" viewBox="0 0 510 233" fill="none" xmlns="http://www.w3.org/2000/svg">
<circle cx="116.416" cy="116.416" r="82.6255" transform="rotate(-40.0578 116.416 116.416)" fill="#0EFF1E"/>
<circle cx="116.416" cy="116.416" r="82.2282" transform="rotate(-40.0578 116.416 116.416)" stroke="#252525" stroke-opacity="0.27" stroke-width="0.794476"/>
<path d="M134.946 72.0004L69.3672 127.14L97.3747 160.45L147.669 153.699L162.953 105.31L134.946 72.0004Z" fill="#3D61EE"/>
<path d="M69.6865 127.168L134.918 72.3197L162.7 105.361L147.496 153.493L97.468 160.209L69.6865 127.168Z" stroke="#252525" stroke-opacity="0.27" stroke-width="0.453329"/>
<path d="M134.958 71.9986L84.6643 78.7499L69.3797 127.138L119.674 120.387L134.958 71.9986Z" fill="#5E7DF7"/>
<path d="M69.7034 126.866L84.837 78.9554L134.635 72.2708L119.501 120.182L69.7034 126.866Z" stroke="#252525" stroke-opacity="0.27" stroke-width="0.453329"/>
<path d="M82.5708 114.663C91.8076 105.528 94.4728 92.7037 88.9328 84.0469L89.1559 83.8593C96.6399 90.7176 109.503 90.3883 120.017 83.1223L120.219 83.3618C111.367 92.3594 108.787 104.776 113.995 113.318L113.69 113.574C106.074 106.894 93.1731 107.399 82.7183 114.838L82.5708 114.663Z" fill="#0EFF1E"/>
<path d="M83.5331 114.003C92.0133 105.047 94.4859 92.8892 89.4105 84.3886C96.9137 90.8479 109.316 90.4988 119.594 83.6822C111.124 92.6283 108.647 104.77 113.701 113.269L113.693 113.276C106.187 106.839 93.8012 107.194 83.5331 114.003Z" stroke="#252525" stroke-opacity="0.27" stroke-width="0.453329"/>
<path d="M147.684 153.7L119.677 120.39L134.961 72.0019L162.969 105.312L147.684 153.7Z" fill="#2B51E8"/>
<path d="M218.166 126.877C204.893 126.877 194.731 123.434 187.679 116.548C180.711 109.58 177.226 99.542 177.226 86.4347V61.6717H202.985V84.3192C202.985 90.8729 204.768 95.8089 208.336 99.1273C211.903 102.446 217.254 104.105 224.388 104.105C228.536 104.105 232.891 103.648 237.454 102.736C242.017 101.74 246.579 100.33 251.142 98.5051L252.635 119.162C247.658 121.65 242.224 123.558 236.334 124.886C230.444 126.213 224.388 126.877 218.166 126.877ZM247.782 155V61.6717H273.665V155H247.782ZM290.93 155V61.6717H316.564V134.467L309.72 129.117L362.606 61.6717H389.857L314.2 155H290.93ZM335.478 110.451L354.393 94.772L391.102 155H361.859L335.478 110.451ZM417.372 137.081V116.3H481.706V137.081H417.372ZM467.023 61.6717L509.456 155H481.955L446.366 72.6221H453.833L418.119 155H390.618L433.052 61.6717H467.023Z" fill="#6F31FF"/>
</svg>
